<?xml version="1.0" encoding="UTF-8"?>
<svg id="Layer_1" data-name="Layer 1" xmlns="http://www.w3.org/2000/svg" viewBox="0 0 633.13 752.58">
  <path d="m633.13,551.54c-.22.88-.34,1.73-.64,2.52-2.03,5.35-4.11,10.69-6.13,16.04-1.35,3.57-2.5,7.21-3.97,10.73-1.9,4.54-4.03,8.99-6.06,13.48-1.67,3.69-3.24,7.43-5.02,11.07-2.2,4.51-4.52,8.96-6.89,13.38-1.6,3-3.39,5.89-5.07,8.85-1.41,2.48-2.72,5.02-4.17,7.48-1.78,3-3.62,5.97-5.49,8.91-2.73,4.28-5.47,8.56-8.29,12.79-1.59,2.38-3.37,4.63-5.02,6.97-1.74,2.46-3.37,4.99-5.13,7.43-1.63,2.26-3.39,4.42-5.06,6.66-1.75,2.34-3.42,4.74-5.21,7.06-1.79,2.33-3.7,4.57-5.53,6.87-1.67,2.1-3.25,4.27-4.97,6.33-1.47,1.76-3.08,3.4-4.62,5.1-1.32,1.47-2.58,3-3.93,4.44-3.87,4.12-7.65,8.32-11.7,12.26-2.83,2.75-5.97,5.2-9.07,7.65-3.87,3.05-7.76,6.1-11.83,8.88-2.59,1.77-5.52,3.06-8.29,4.57-.98.53-1.91,1.17-2.93,1.63-5.74,2.57-11.59,4.83-17.7,6.4-9.63,2.47-19.34,2.8-29.23,2.12-6.84-.47-13.43-1.86-20.01-3.52-4.01-1.02-7.98-2.2-11.95-3.37-3.88-1.15-7.75-2.38-11.61-3.59-.38-.12-.71-.36-1.08-.51-4.86-2-9.67-4.13-14.59-5.95-4.47-1.65-9.06-2.96-13.6-4.43-1.29-.42-2.56-.89-3.87-1.26-7.46-2.09-14.98-4.1-22.66-4.93-8.87-.96-17.8-1.95-26.78-1.06-5.08.51-10.22.6-15.27,1.31-4.57.65-9.02,2.12-13.59,2.82-5.88.9-11.38,3.07-17.04,4.66-4.42,1.25-8.67,3.1-12.97,4.76-3.72,1.43-7.35,3.08-11.1,4.4-6.53,2.3-13.07,4.57-19.7,6.55-4.88,1.46-9.86,2.72-14.88,3.57-9.3,1.57-18.67,2.79-28.11,1.29-5.11-.81-10.19-1.6-15.08-3.57-3.32-1.34-6.62-2.66-9.89-4.15-5.99-2.72-11.47-6.17-16.72-10.07-3.3-2.46-6.69-4.81-9.81-7.49-3.81-3.28-7.5-6.71-11.01-10.31-4.95-5.08-9.68-10.36-14.49-15.58-1.6-1.74-3.2-3.49-4.7-5.32-2.51-3.06-4.93-6.2-7.38-9.3-2.02-2.56-4.09-5.08-6.06-7.68-1.73-2.28-3.35-4.64-5.02-6.95-3.57-4.96-7.17-9.9-10.72-14.87-2.91-4.07-5.83-8.14-8.64-12.28-1.55-2.29-2.88-4.73-4.33-7.09-1.99-3.24-4.06-6.44-5.98-9.72-1.6-2.74-3.02-5.58-4.53-8.36-1.48-2.73-3.02-5.44-4.46-8.19-1.88-3.6-3.71-7.22-5.52-10.86-1.78-3.57-3.59-7.12-5.24-10.75-1.77-3.91-3.35-7.9-5.03-11.84-.31-.73-.74-1.41-1.05-2.14-1.78-4.17-3.64-8.31-5.3-12.53-1.45-3.7-2.65-7.49-3.99-11.24-.48-1.35-1.11-2.65-1.59-4-1.49-4.2-3.03-8.39-4.38-12.63-1.49-4.7-2.78-9.46-4.17-14.19-.88-2.99-1.84-5.95-2.67-8.95-1.17-4.22-2.33-8.45-3.33-12.71-1.37-5.83-2.69-11.67-3.85-17.55-1.23-6.18-2.45-12.38-3.3-18.62-1.16-8.46-1.87-16.98-2.95-25.45-.9-7.01-.72-14.04-.91-21.07-.14-5.43-.33-10.87-.2-16.3.24-10.62.38-21.25,1.9-31.8.51-3.55,1.38-7.07,1.69-10.64.48-5.61,1.9-11.01,3.14-16.46,1.03-4.5,2.2-8.97,3.48-13.4,1.14-3.98,2.57-7.87,3.77-11.83,1.75-5.8,3.93-11.42,6.59-16.87,1.49-3.05,2.57-6.3,4.06-9.36,1.42-2.92,3.08-5.73,4.69-8.56,1.74-3.04,3.52-6.06,5.32-9.06,2.95-4.91,6.04-9.73,9.59-14.25,1.46-1.86,2.64-3.94,4.09-5.81,1.66-2.13,3.44-4.16,5.25-6.17,2.77-3.07,5.59-6.11,8.44-9.12,4.55-4.8,9.45-9.24,14.59-13.4,2.15-1.74,4.23-3.58,6.44-5.26,2.08-1.58,4.27-3.03,6.45-4.48,3.18-2.11,6.36-4.22,9.6-6.23,2.35-1.46,4.78-2.79,7.21-4.11,3.22-1.74,6.42-3.53,9.72-5.09,3.81-1.8,7.72-3.38,11.6-5.04,1.24-.53,2.48-1.09,3.76-1.52,5.05-1.73,10.06-3.62,15.19-5.07,4.9-1.39,9.88-2.64,14.91-3.39,10.5-1.57,21.01-3.18,31.67-3.22,7.39-.03,14.65,1,21.9,2.28,5.35.95,10.61,2.22,15.89,3.5,4.21,1.02,8.21,2.6,12.38,3.6,3.68.88,7.11,2.32,10.65,3.52,3.08,1.04,6.15,2.16,9.21,3.26,5.24,1.88,10.47,3.78,15.71,5.65,4.28,1.52,8.56,3.03,12.86,4.48,3.39,1.14,6.78,2.32,10.24,3.22,5.32,1.38,10.7,2.54,16.05,3.8,3.46.81,6.83.14,10.17-.7,2.01-.51,4-1.11,5.99-1.7,5.03-1.49,10.06-3,15.09-4.51.38-.11.76-.24,1.14-.37,5.32-1.9,10.63-3.84,15.97-5.69,4.05-1.41,8.16-2.65,12.21-4.08,4.89-1.72,9.72-3.61,14.62-5.3,4.74-1.63,9.52-3.19,14.33-4.61,3.66-1.08,7.37-2.01,11.11-2.79,6.71-1.42,13.41-3.14,20.21-3.91,12.07-1.36,24.18-1.99,36.36-.61,6.43.73,12.87,1.35,19.21,2.61,6.32,1.26,12.64,2.5,18.92,4.05,4.89,1.21,9.49,3.3,14.44,4.24,1.16.22,2.24.84,3.35,1.29,4.73,1.89,9.52,3.67,14.18,5.73,3.34,1.48,6.53,3.3,9.76,5.03,2.88,1.54,5.78,3.04,8.56,4.75,2.76,1.7,5.4,3.62,8.05,5.5,2.86,2.03,5.71,4.08,8.47,6.24,2.62,2.04,5.23,4.12,7.65,6.38,2.83,2.64,5.45,5.49,8.17,8.25,1.61,1.63,3.29,3.19,4.82,4.9,1.58,1.77,3.02,3.67,4.5,5.52,2.03,2.54,4.05,5.1,6.07,7.66.39.49.79,1,1.07,1.56.42.85.15,1.4-.73,1.93-3.13,1.87-6.27,3.74-9.26,5.82-3.77,2.62-7.43,5.39-11.08,8.18-2.32,1.78-4.53,3.7-6.76,5.58-1.33,1.12-2.58,2.34-3.92,3.44-3.74,3.08-7.1,6.55-10.34,10.13-1.6,1.77-3.35,3.4-4.89,5.21-1.49,1.74-2.82,3.61-4.2,5.45-1.76,2.35-3.54,4.7-5.24,7.09-1.7,2.39-3.44,4.76-4.94,7.27-2.12,3.55-4.14,7.17-5.98,10.87-1.63,3.27-2.96,6.7-4.41,10.06-.57,1.32-1.22,2.61-1.67,3.96-1.79,5.45-3.77,10.86-5.2,16.4-1.36,5.24-2.37,10.6-3.1,15.97-.74,5.37-1.05,10.81-1.38,16.23-.51,8.31-.25,16.61.38,24.91.63,8.21,1.61,16.37,3.66,24.36,1.03,4.01,2.4,7.94,3.25,11.99.93,4.42,2.89,8.44,4.43,12.61,1.29,3.5,2.98,6.86,4.64,10.2,1.63,3.28,3.39,6.5,5.21,9.68,2.83,4.97,5.9,9.79,9.55,14.23,1.4,1.71,2.59,3.58,3.95,5.33,1.27,1.63,2.52,3.28,3.96,4.74,5.53,5.63,10.93,11.42,16.78,16.71,4.8,4.34,9.77,8.56,15.23,12.12,4.12,2.7,8.13,5.57,12.32,8.16,2.69,1.66,5.62,2.92,8.43,4.38.99.51,1.93,1.14,2.94,1.62,2.87,1.36,5.75,2.68,9.02,4.2Z"/>
  <path d="m317.3,177.69c-.26-3.93-.6-7.66-.72-11.4-.25-7.53.6-14.97,1.52-22.44.7-5.68,2.29-11.07,3.55-16.58.77-3.37,2.21-6.5,2.97-9.81.98-4.25,3.33-7.92,4.47-12.07.33-1.21,1.05-2.31,1.63-3.45,1.36-2.69,2.84-5.33,4.08-8.08,2.27-5.01,5.36-9.53,8.22-14.19,1.53-2.49,3.31-4.84,5.02-7.23,1.52-2.12,3.04-4.25,4.66-6.3,1.92-2.43,3.93-4.79,5.94-7.13,2.53-2.94,5.05-5.89,7.69-8.73,1.44-1.56,3.11-2.91,4.69-4.33,1.53-1.38,3.05-2.78,4.63-4.09,3.06-2.52,6.08-5.1,9.27-7.45,3.95-2.92,8-5.72,12.12-8.39,2.59-1.68,5.39-3.04,8.12-4.53,3.07-1.67,6.1-3.44,9.26-4.94,3.66-1.74,7.44-3.22,11.16-4.82,1.1-.47,2.17-1.01,3.29-1.42,4.42-1.6,8.79-3.38,13.3-4.69,5.2-1.52,10.48-2.84,15.81-3.83,4.85-.89,9.81-1.22,14.72-1.78.38-.04.77.06,1.32.11.18,1.15.42,2.23.51,3.33,1.04,12.81.19,25.51-2.05,38.17-.91,5.12-2.31,10.08-3.63,15.09-1.61,6.11-3.73,11.99-6.37,17.71-1.46,3.17-2.71,6.45-4.3,9.55-1.78,3.46-3.8,6.79-5.78,10.14-1.37,2.31-2.86,4.56-4.26,6.85-2.82,4.62-6.09,8.92-9.39,13.2-1.5,1.95-2.98,3.91-4.56,5.79-1.42,1.69-2.96,3.28-4.46,4.91-1.18,1.28-2.36,2.55-3.57,3.8-2.92,3.03-5.81,6.1-8.81,9.05-1.63,1.61-3.45,3.02-5.17,4.52-1.85,1.62-3.64,3.3-5.55,4.85-2.28,1.85-4.58,3.67-7,5.33-4.32,2.97-8.66,5.93-13.14,8.65-2.97,1.81-6.21,3.18-9.32,4.76-.71.36-1.38.82-2.11,1.13-4.32,1.84-8.58,3.86-13,5.42-3.82,1.35-7.77,2.46-11.76,3.18-10.38,1.87-20.8,3.54-31.41,2.34-.39-.04-.78-.1-1.6-.2Z"/>
</svg>